<?xml version="1.0" encoding="UTF-8" standalone="no"?>
<svg
   width="456"
   height="456"
   viewBox="0 0 456 456"
   version="1.1"
   xml:space="preserve"
   style="fill-rule:evenodd;clip-rule:evenodd;stroke-linejoin:round;stroke-miterlimit:2;"
   id="svg4"
   sodipodi:docname="appiconfg.svg"
   inkscape:version="1.4 (86a8ad7, 2024-10-11)"
   xmlns:inkscape="http://www.inkscape.org/namespaces/inkscape"
   xmlns:sodipodi="http://sodipodi.sourceforge.net/DTD/sodipodi-0.dtd"
   xmlns="http://www.w3.org/2000/svg"
   xmlns:svg="http://www.w3.org/2000/svg"><defs
   id="defs4" /><sodipodi:namedview
   id="namedview4"
   pagecolor="#ffffff"
   bordercolor="#000000"
   borderopacity="0.25"
   inkscape:showpageshadow="2"
   inkscape:pageopacity="0.0"
   inkscape:pagecheckerboard="0"
   inkscape:deskcolor="#d1d1d1"
   inkscape:zoom="2.5592105"
   inkscape:cx="228"
   inkscape:cy="228"
   inkscape:window-width="3440"
   inkscape:window-height="1369"
   inkscape:window-x="-8"
   inkscape:window-y="-8"
   inkscape:window-maximized="1"
   inkscape:current-layer="svg4" />
    
    
    
    
<rect
   style="fill:none;stroke:#ffffff;stroke-opacity:1;stroke-width:3;stroke-dasharray:none"
   id="rect5"
   width="338.38559"
   height="324.31876"
   x="71.897171"
   y="78.930588" /><circle
   style="fill:none;stroke:#ffffff;stroke-width:3;stroke-dasharray:none;stroke-opacity:1"
   id="path5"
   cx="241.08998"
   cy="244.99744"
   r="101.20309" /><path
   style="fill:none;stroke:#ffffff;stroke-width:3;stroke-dasharray:none;stroke-opacity:1"
   d="m 140.9357,259.52962 c 2.11744,0.27837 2.25615,-1.72709 3.64014,-2.41908 0.23299,-0.1165 0.59729,0.1842 0.78149,0 0.1842,-0.1842 -0.1842,-0.59729 0,-0.78149 0.55259,-0.5526 1.60308,0.24713 2.34447,0 0.34949,-0.1165 0.45198,-0.61674 0.78149,-0.78149 0.233,-0.1165 0.59729,0.1842 0.78149,0 0.1842,-0.1842 -0.1842,-0.59729 0,-0.78149 0.1842,-0.1842 0.5485,0.11649 0.78149,0 0.65901,-0.32951 0.90397,-1.23348 1.56298,-1.56299 0.233,-0.11649 0.5485,0.1165 0.7815,0 0.3295,-0.16475 0.45198,-0.61673 0.78149,-0.78149 0.23299,-0.11649 0.54849,0.1165 0.78149,0 2.59188,-2.59188 -0.7368,0.3684 1.56298,-0.78149 0.65901,-0.3295 0.94993,-1.15428 1.56298,-1.56298 0.48466,-0.32311 1.07832,-0.45838 1.56298,-0.78149 0.30653,-0.20435 0.432,-0.66499 0.78149,-0.78149 0.49426,-0.16475 1.06873,0.16475 1.56299,0 0.34949,-0.1165 0.45198,-0.61674 0.78149,-0.78149 0.23299,-0.1165 0.54849,0.1165 0.78149,0 0.21747,-0.10874 2.127,-1.45425 2.34447,-1.56298 0.233,-0.1165 0.5485,0.11649 0.78149,0 0.32951,-0.16476 0.45199,-0.61674 0.78149,-0.7815 0.83359,-0.41679 2.29238,0.4168 3.12597,0 0.3295,-0.16475 0.45198,-0.61673 0.78149,-0.78149 0.79973,-0.39986 7.55107,-1.30415 8.5964,-0.78149 1.06217,0.53109 2.06379,1.81339 3.12596,2.34448 0.233,0.11649 0.5973,-0.1842 0.78149,0 0.1842,0.1842 -0.18419,0.59729 0,0.78149 0.1842,0.1842 0.5485,-0.1165 0.7815,0 0.21747,0.10873 2.127,1.45424 2.34447,1.56298 0.23299,0.1165 0.59729,-0.1842 0.78149,0 0.1842,0.1842 -0.1842,0.59729 0,0.78149 0.1842,0.1842 0.5485,-0.1165 0.78149,0 2.59188,2.59188 -0.7368,-0.3684 1.56298,0.78149 0.93779,0.4689 1.40669,1.87558 2.34448,2.34447 0.46599,0.233 1.09699,-0.23299 1.56298,0 3.25238,1.62619 -0.83544,-0.054 0.78149,1.56299 0.1842,0.1842 0.56474,-0.1445 0.78149,0 0.61305,0.4087 0.98764,1.1027 1.56298,1.56298 1.46684,1.17347 3.24587,1.92339 4.68895,3.12596 0.84903,0.70753 1.48146,1.65406 2.34447,2.34447 0.45485,0.36388 1.1511,0.36961 1.56298,0.7815 0.41188,0.41188 0.36961,1.1511 0.78149,1.56298 0.41189,0.41188 1.1511,0.36961 1.56299,0.78149 0.41188,0.41188 0.3696,1.1511 0.78149,1.56298 0.41188,0.41188 1.1511,0.36961 1.56298,0.78149 0.41188,0.41188 0.36961,1.1511 0.78149,1.56298 0.41188,0.41189 1.09699,0.432 1.56298,0.78149 1.4736,1.1052 2.4691,2.75678 3.90746,3.90746 0.45484,0.36388 1.07832,0.45838 1.56298,0.78149 1.34793,0.89862 2.55953,2.22735 3.90745,3.12596 0.39356,1.72176 1.60768,0.4131 2.34448,0.7815 0.98851,0.49425 1.46031,1.68135 2.34447,2.34447 0.32963,0.24722 5.39311,3.0873 5.47044,3.12596 0.23299,0.1165 0.54849,-0.11649 0.78149,0 0.3295,0.16476 0.45198,0.61674 0.78149,0.78149 0.23299,0.1165 0.52099,0 0.78149,0 0.52099,0.2605 1.07832,0.45839 1.56298,0.78149 0.30653,0.20436 0.432,0.665 0.78149,0.7815 0.7505,0.25016 2.37592,-0.37503 3.12597,0 0.3295,0.16475 0.43199,0.66499 0.78149,0.78149 1.40048,0.46682 5.15757,0 7.03342,0 1.86066,0 4.43931,0.45315 6.25192,0 0.5651,-0.14128 0.99789,-0.64022 1.56299,-0.78149 0.75815,-0.18954 1.64548,0.34949 2.34447,0 0.32951,-0.16476 0.45199,-0.61674 0.78149,-0.7815 0.233,-0.11649 0.52877,0.0632 0.78149,0 0.79917,-0.19979 1.57963,-0.47555 2.34447,-0.78149 2.38023,-0.95209 4.64729,-2.17151 7.03342,-3.12596 1.49777,-0.59911 2.62752,-1.49118 3.90746,-2.34447 0.52099,-0.2605 1.04199,-0.521 1.56298,-0.78149 0.2605,0 0.5485,0.11649 0.78149,0 0.21747,-0.10874 2.127,-1.45425 2.34447,-1.56299 0.7368,-0.36839 1.60768,-0.41309 2.34448,-0.78149 0.98851,-0.49426 1.46031,-1.68135 2.34447,-2.34447 0.93198,-0.69899 2.15664,-0.91677 3.12596,-1.56298 0.30653,-0.20435 0.45199,-0.61674 0.7815,-0.78149 0.23299,-0.1165 0.54849,0.11649 0.78149,0 0.3295,-0.16476 0.45198,-0.61674 0.78149,-0.78149 0.23299,-0.1165 0.53436,0.0824 0.78149,0 0.5526,-0.1842 1.04199,-0.521 1.56298,-0.7815 1.88824,-0.94411 3.41294,-2.44013 5.47044,-3.12596 0.24713,-0.0824 0.54849,0.1165 0.78149,0 1.06217,-0.53109 2.06379,-1.81339 3.12596,-2.34447 0.233,-0.1165 0.521,0 0.78149,0 0.521,-0.2605 1.07833,-0.45839 1.56299,-0.78149 0.61305,-0.4087 0.94993,-1.15428 1.56298,-1.56299 2.04854,-1.36569 1.36569,-0.2921 3.90745,-1.56298 0.32951,-0.16475 0.45199,-0.61674 0.78149,-0.78149 0.233,-0.1165 0.5973,0.1842 0.7815,0 0.18419,-0.1842 -0.233,-0.66499 0,-0.78149 0.69898,-0.34949 1.79187,0.5526 2.34447,0 0.1842,-0.1842 -0.1842,-0.59729 0,-0.78149 0.20686,-0.20687 2.02268,0 2.34447,0 0.87269,0 2.30493,-0.27368 3.12597,0 0.55259,0.1842 1.01038,0.59729 1.56298,0.78149 0.49426,0.16475 1.09699,-0.23299 1.56298,0 0.3295,0.16475 0.47496,0.57714 0.78149,0.78149 0.39355,1.72175 1.60768,0.41309 2.34447,0.78149 0.32951,0.16476 0.45199,0.61674 0.78149,0.78149 0.233,0.1165 0.5485,-0.11649 0.7815,0 0.3295,0.16476 0.52099,0.521 0.78149,0.78149 0.52099,0 1.05754,-0.12635 1.56298,0 0.5651,0.14128 0.99788,0.64022 1.56298,0.7815 1.83187,0.45796 6.5646,0 8.5964,0 0.521,0 1.19458,0.36839 1.56298,0 0.1842,-0.1842 -0.1842,-0.5973 0,-0.7815 0.39075,-0.39074 1.95373,0.39075 2.34448,0 0.73028,-0.73028 -1.08545,-1.06702 1.18123,-0.72035"
   id="path6" /><text
   xml:space="preserve"
   style="font-size:48px;text-align:start;writing-mode:lr-tb;direction:ltr;text-anchor:start;white-space:pre;inline-size:0;fill:none;stroke:#ffffff;stroke-width:1;stroke-dasharray:none;stroke-opacity:1"
   x="228"
   y="203.96915"
   id="text6"
   transform="translate(60.956298,187.16301)"><tspan
     id="tspan6"
     x="228"
     y="203.96915"
     style="font-style:normal;font-variant:normal;font-weight:normal;font-stretch:normal;font-size:48px;font-family:'Comic Sans MS';-inkscape-font-specification:'Comic Sans MS';fill:#ffffff;fill-opacity:1;stroke:none">alpha</tspan></text></svg>
